<svg width="592" height="456" viewBox="0 0 592 456" fill="none" xmlns="http://www.w3.org/2000/svg">
<path d="M258 90C215.6 21.2 121 2 79 1V324C173.4 284 237.667 335.333 258 366V90Z" fill="#09396A" stroke="#09396A"/>
<path d="M334 90C376.4 21.2 471 2 513 1V324C418.6 284 354.333 335.333 334 366V90Z" fill="#EA762F" stroke="#EA762F"/>
<path d="M302.5 131H291L292 455H313C339 455.4 348.833 438.833 350.5 430.5H591V107H558V405.5H329C401 317.9 491.333 341.333 527.5 364C436.3 290.4 338.5 369.667 301 418.5L302.5 131Z" fill="#09396A" stroke="#09396A"/>
<path d="M289.5 131H301L300 455H279C253 455.4 243.167 438.833 241.5 430.5H1V107H34V405.5H263C191 317.9 100.667 341.333 64.5 364C155.7 290.4 253.5 369.667 291 418.5L289.5 131Z" fill="#09396A" stroke="#09396A"/>
</svg>
